HIERARCHY
ROOT root
{
	OFFSET 0.000000 0.000000 0.000000
	CHANNELS 6 Xposition Yposition Zposition Zrotation Yrotation Xrotation
	JOINT lhip
	{
		OFFSET 0.058581 -0.082280 -0.017664
		CHANNELS 3 Zrotation Yrotation Xrotation
		JOINT lknee
		{
			OFFSET 0.043451 -0.386469 0.008037
			CHANNELS 3 Zrotation Yrotation Xrotation
			JOINT lankle
			{
				OFFSET -0.014790 -0.426874 -0.037428
				CHANNELS 3 Zrotation Yrotation Xrotation
				JOINT ltoe
				{
					OFFSET 0.041054 -0.060286 0.122042
					CHANNELS 3 Zrotation Yrotation Xrotation
					End Site
					{
						OFFSET 0.000000 0.000000 0.000000
					}
				}
			}
		}
	}
	JOINT rhip
	{
		OFFSET -0.060310 -0.090513 -0.013543
		CHANNELS 3 Zrotation Yrotation Xrotation
		JOINT rknee
		{
			OFFSET -0.043257 -0.383688 -0.004843
			CHANNELS 3 Zrotation Yrotation Xrotation
			JOINT rankle
			{
				OFFSET 0.019056 -0.420046 -0.034562
				CHANNELS 3 Zrotation Yrotation Xrotation
				JOINT rtoe
				{
					OFFSET -0.034840 -0.062106 0.130323
					CHANNELS 3 Zrotation Yrotation Xrotation
					End Site
					{
						OFFSET 0.000000 0.000000 0.000000
					}
				}
			}
		}
	}
	JOINT lowerback
	{
		OFFSET 0.004439 0.124404 -0.038385
		CHANNELS 3 Zrotation Yrotation Xrotation
		JOINT upperback
		{
			OFFSET 0.004488 0.137956 0.026820
			CHANNELS 3 Zrotation Yrotation Xrotation
			JOINT chest
			{
				OFFSET -0.002265 0.056032 0.002855
				CHANNELS 3 Zrotation Yrotation Xrotation
				JOINT lowerneck
				{
					OFFSET -0.013390 0.211636 -0.033468
					CHANNELS 3 Zrotation Yrotation Xrotation
					JOINT upperneck
					{
						OFFSET 0.010113 0.088937 0.050410
						CHANNELS 3 Zrotation Yrotation Xrotation
						End Site
						{
							OFFSET 0.000000 0.000000 0.000000
						}
					}
				}
				JOINT lclavicle
				{
					OFFSET 0.071702 0.114000 -0.018898
					CHANNELS 3 Zrotation Yrotation Xrotation
					JOINT lshoulder
					{
						OFFSET 0.122921 0.045205 -0.019046
						CHANNELS 3 Zrotation Yrotation Xrotation
						JOINT lelbow
						{
							OFFSET 0.255332 -0.015649 -0.022946
							CHANNELS 3 Zrotation Yrotation Xrotation
							JOINT lwrist
							{
								OFFSET 0.265709 0.012698 -0.007375
								CHANNELS 3 Zrotation Yrotation Xrotation
								End Site
								{
									OFFSET 0.000000 0.000000 0.000000
								}
							}
						}
					}
				}
				JOINT rclavicle
				{
					OFFSET -0.082954 0.112472 -0.023707
					CHANNELS 3 Zrotation Yrotation Xrotation
					JOINT rshoulder
					{
						OFFSET -0.113228 0.046853 -0.008472
						CHANNELS 3 Zrotation Yrotation Xrotation
						JOINT relbow
						{
							OFFSET -0.260127 -0.014369 -0.031269
							CHANNELS 3 Zrotation Yrotation Xrotation
							JOINT rwrist
							{
								OFFSET -0.269108 0.006794 -0.006027
								CHANNELS 3 Zrotation Yrotation Xrotation
								End Site
								{
									OFFSET 0.000000 0.000000 0.000000
								}
							}
						}
					}
				}
			}
		}
	}
}
MOTION
Frames: 10
Frame Time: 0.033333
0.124182 0.170385 0.985805 177.052580 0.226432 103.380973 11.942620 15.213513 -29.638414 -0.510998 1.117887 23.715286 -8.757426 4.950478 2.872376 0.000000 -0.000000 0.000000 -3.147176 -4.130365 -31.016820 3.028562 7.663708 19.968025 5.190362 -1.645303 -2.166020 0.000000 -0.000000 0.000000 5.002712 -5.659868 35.428109 2.428266 -10.314051 -3.880827 5.748454 -2.823814 -0.114513 -10.992808 17.153465 0.314681 -4.209667 9.957083 -18.159970 23.300416 -27.868842 -18.790544 -91.226961 -31.223194 14.030404 134.257995 -36.143936 -128.799020 -32.082938 11.664209 39.308741 -18.149419 23.193477 -12.197144 80.230663 37.156136 13.778392 -144.905480 27.526943 -142.341986 25.168755 -40.109827 73.288735 
0.120303 0.168873 0.980776 179.928210 1.154682 103.163329 12.030490 14.839649 -30.438335 -0.493756 -0.455946 23.488174 -8.541289 4.581440 1.311281 0.000000 -0.000000 0.000000 -2.767289 -3.730866 -31.494474 2.883941 6.552477 22.124631 4.820147 -2.865773 -3.527672 0.000000 -0.000000 0.000000 5.003355 -5.243994 36.164004 1.936019 -9.807680 -3.967662 5.883348 -3.149943 -0.055472 -10.398555 17.280700 0.011157 -3.839651 10.200763 -18.912870 21.563647 -28.432103 -17.393768 -90.381100 -30.549005 12.077373 135.564302 -37.995885 -129.456137 -33.194117 14.004897 39.804617 -17.783698 23.234441 -12.040186 80.172427 36.973609 12.980608 -143.957787 29.028268 -141.384032 26.795001 -40.558673 71.661303 
0.115019 0.167473 0.974469 -176.808913 2.116377 102.979810 12.386456 13.963195 -30.804321 -0.643253 -1.575619 22.644380 -7.866692 4.683377 -0.881784 0.000000 -0.000000 0.000000 -2.535242 -3.596097 -31.997920 2.857850 4.952020 24.556469 4.397712 -4.118465 -5.179865 0.000000 -0.000000 0.000000 5.068520 -5.112716 36.501185 1.666038 -9.347135 -3.278265 5.866687 -2.840539 -0.245955 -9.771319 17.257098 -0.162442 -3.239255 10.002138 -19.835453 20.695518 -28.849093 -16.925235 -90.779179 -29.628105 11.125217 135.594488 -39.365087 -129.470545 -36.043426 18.208650 40.063152 -17.427946 23.431017 -11.766515 79.848202 36.669752 11.531307 -143.161875 30.606471 -141.006999 28.203200 -42.873661 70.794955 
0.108076 0.166139 0.968645 -173.432252 2.781786 103.111412 12.236372 13.141877 -30.638272 -0.620821 -2.565308 20.381782 -7.111366 4.607581 -3.552974 0.000000 -0.000000 0.000000 -2.643679 -3.778248 -32.779140 2.625468 3.201559 27.068320 4.507874 -5.115787 -6.610783 0.000000 -0.000000 0.000000 5.316819 -4.909767 37.080190 1.255025 -8.702240 -4.117672 6.146210 -3.083934 -0.163354 -9.374302 16.151414 0.854133 -2.612858 10.472646 -20.871131 18.568029 -29.461731 -15.516886 -90.419386 -28.679146 9.056292 136.606056 -41.087324 -129.611333 -38.652607 24.099457 40.700063 -17.137389 24.241535 -11.377667 79.842862 35.803888 11.179186 -142.040125 31.690674 -139.660864 30.602046 -45.901759 69.287422 
0.099622 0.163937 0.964673 -169.557765 3.114014 103.665626 10.948655 13.022308 -31.244469 -0.276763 -5.298755 17.693181 -6.367910 3.253870 -4.058044 0.000000 -0.000000 0.000000 -2.948301 -4.030135 -33.812136 1.865474 1.494508 29.399636 4.424655 -6.322695 -7.445116 0.000000 -0.000000 0.000000 5.764821 -5.186551 37.583879 0.819971 -7.987220 -5.686167 6.243323 -3.031506 0.272551 -9.217773 14.354422 1.982867 -1.797032 10.739530 -22.106526 16.586061 -30.244986 -13.933423 -89.835649 -27.362645 6.906375 138.705913 -42.269616 -131.056021 -38.932811 30.566570 42.132617 -16.922842 24.904678 -10.872023 80.356161 34.907282 9.833696 -142.017876 33.497205 -138.723255 34.206917 -49.025574 66.147888 
0.091025 0.162351 0.964939 -165.012611 2.687657 103.875729 9.129608 12.546605 -34.040976 -1.136087 -7.229937 19.489650 -6.418614 1.943111 -3.078646 0.000000 -0.000000 0.000000 -3.579345 -5.064109 -33.773265 0.503035 0.150787 30.959534 4.323747 -7.248550 -7.533711 0.000000 -0.000000 0.000000 6.302754 -4.885447 38.135094 0.766629 -7.802607 -6.829408 6.239189 -3.007454 0.764704 -8.901009 12.292797 3.039965 -0.772267 9.807619 -23.074318 15.453765 -30.468247 -13.246896 -90.024854 -26.789328 6.255026 138.925667 -42.053281 -132.396611 -39.568476 37.171576 44.095403 -15.992944 25.047740 -10.246466 80.834949 33.911079 7.923357 -143.220956 35.770022 -139.162951 38.843688 -51.430802 61.740630 
0.081409 0.162756 0.966932 -160.923255 1.471041 103.234004 8.266751 9.758196 -33.452879 -2.132577 -6.871868 18.452573 -6.459924 1.186567 -2.255738 0.000000 -0.000000 0.000000 -5.172291 -6.415008 -32.009737 -0.295302 -0.116605 31.414694 4.581731 -8.214098 -7.847327 0.000000 -0.000000 0.000000 6.771554 -3.808530 38.649753 0.514293 -7.669240 -6.404323 6.290940 -2.669147 0.115928 -8.861171 9.600736 4.164316 0.767315 7.926793 -22.946481 15.258240 -30.165854 -13.283039 -90.456319 -25.925819 5.241402 139.145100 -42.340234 -132.120488 -37.976908 39.832616 45.821091 -16.497726 26.015213 -10.343783 81.937392 32.392352 8.103503 -143.058505 35.673008 -138.815968 41.369313 -53.773643 60.164581 
0.071993 0.163596 0.969618 -157.123830 0.801501 102.699008 6.947061 8.410477 -32.934218 -2.884884 -8.405394 17.309456 -6.004584 0.765271 -1.580900 0.000000 -0.000000 0.000000 -6.017591 -7.513858 -30.179557 -1.108763 -0.036542 31.485894 4.511164 -9.299914 -7.851567 0.000000 -0.000000 0.000000 7.646929 -2.728044 38.369135 0.491073 -6.882926 -6.240655 6.333522 -2.462151 0.080113 -8.548177 6.627923 5.067426 1.475755 5.746535 -22.434106 14.652914 -29.103812 -13.050605 -90.098006 -25.784662 3.982979 139.643801 -42.305800 -133.358308 -34.567903 40.823541 49.962796 -16.502146 26.363301 -10.627511 82.583703 31.562979 8.133929 -143.416601 36.551734 -138.896941 45.709257 -54.526291 56.121766 
0.062480 0.164733 0.972086 -153.707959 0.897820 102.469555 4.967746 9.107980 -33.194880 -2.791931 -11.319232 17.040605 -5.619158 -0.668903 -1.348823 0.000000 -0.000000 0.000000 -5.981659 -8.150035 -28.807016 -1.901683 0.036913 31.613491 4.167017 -10.546631 -7.597334 0.000000 -0.000000 0.000000 8.839381 -2.250270 37.191924 0.437146 -5.772520 -6.340303 6.350387 -2.212370 0.777835 -7.812458 3.691281 5.066680 1.810269 3.881998 -21.655860 14.548411 -27.289462 -13.029502 -90.261674 -25.636850 4.008831 139.404035 -41.356075 -134.767438 -29.624136 38.861734 54.299389 -17.055877 26.773456 -10.821430 82.873440 31.444831 8.363677 -143.455344 37.685081 -138.510057 48.878002 -51.463345 51.565816 
0.053023 0.166949 0.974695 -150.775885 0.793890 102.153473 3.636867 8.917182 -32.562426 -2.799850 -13.438997 15.960021 -5.137158 -1.528726 -1.062639 0.000000 -0.000000 0.000000 -6.496046 -8.196029 -27.244355 -2.464546 -0.514424 31.502627 4.049792 -12.200473 -7.097989 0.000000 -0.000000 0.000000 9.565913 -1.930731 35.805566 0.569181 -4.771420 -6.121577 6.018032 -1.514342 1.131182 -6.734509 1.335633 4.787423 2.191579 1.291397 -20.760194 14.895581 -26.239403 -13.709153 -89.881320 -25.603625 4.753288 137.904370 -39.268923 -135.656585 -24.806793 37.832553 59.561464 -17.253058 27.112354 -11.260058 83.325206 31.609024 9.105239 -143.547663 38.088055 -139.000934 51.759284 -48.882754 48.360393 
